<?xml version="1.0" encoding="utf-8"?>
<!-- Generator: Adobe Illustrator 25.3.1, SVG Export Plug-In . SVG Version: 6.00 Build 0)  -->
<svg version="1.1" id="Layer_1" xmlns="http://www.w3.org/2000/svg" xmlns:xlink="http://www.w3.org/1999/xlink" x="0px" y="0px"
	 viewBox="0 0 90 90" style="enable-background:new 0 0 90 90;" xml:space="preserve">
<style type="text/css">
	.st0{fill:#E7E7E7;}
</style>
<g>
	<path class="st0" d="M29.7,17.8H10.5c0,0-0.8,0-0.8,1.6v50.5c0,0-0.6,1.6,1.7,1.6l67.9,0V27.5c0,0,0.5-1.9-1.8-1.8l-38.4,0
		c0,0-1.9-0.2-2.9-1.2L29.7,17.8z"/>
	<g>
		<g>
			<path d="M84.9,27c0-3.5-2.3-6.2-5.7-6.8c-0.6-0.1-1.3-0.1-1.9-0.1c-0.2,0-0.3,0-0.5,0h-8.1c-9.4,0-19,0-28.6,0
				c-0.2,0-0.6-0.2-0.8-0.3c-2-1.9-4.1-4-6.1-6.1c-1-1-2.1-1.5-3.6-1.5c0,0,0,0,0,0c-5.1,0-10.3,0-15.3,0h-3h0c-2.1,0-3.9,0.7-5.2,2
				c-1.3,1.3-2,3.1-2,5.3c0,6,0,12,0,17.9v7.3v0.8V52c0,6.1,0,12.2,0,18.3c0,4,2.9,6.9,7,6.9c5.9,0,11.8,0,17.7,0
				c6.8,0,13.7,0,20.5,0h32.5h0.1c0.1,0,0.2,0,0.3,0h0l0,0c0.1,0,0.3,0,0.4,0c0,0,0.1,0,0.1,0c0.1,0,0.1,0,0.2,0
				c0.1,0,0.2-0.1,0.3-0.1c0.1,0,0.2-0.1,0.2-0.1c0.1,0,0.1-0.1,0.2-0.1c0.8-0.5,1.3-1.3,1.3-2.5v-3.1C84.9,64.4,84.9,33.8,84.9,27z
				 M41.6,71.6c-10.1,0-20.2,0-30.3,0c-1.4,0-1.7-0.3-1.7-1.6c0-16.8,0-33.7,0-50.5c0-1.3,0.3-1.6,1.6-1.6c5.5,0,11.7,0,17.8,0
				c0.2,0,0.5,0.1,0.7,0.3c2.1,2,4.2,4.2,6.4,6.3c0.8,0.8,1.7,1.2,2.9,1.2h0c9,0,18,0,27.1,0h11.3l0,0c0.8,0,1.2,0.1,1.5,0.3
				c0.2,0.2,0.3,0.7,0.3,1.4v7.6c0,4.5,0,27.7,0,36.5L41.6,71.6z"/>
		</g>
		<path d="M54.8,48.8c0-1-0.8-1.7-1.9-1.7l0,0c-1.4,0-2.9,0-4.3,0h-2.3l0-0.5v-2.3c0-1.3,0-2.6,0-3.9c0-0.6-0.2-1.1-0.5-1.4
			c-0.3-0.3-0.7-0.4-1.1-0.4c-1,0-1.6,0.8-1.7,1.9l0,6.7l-0.4,0h-6h-0.1c-0.1,0-0.2,0-0.4,0c-1,0.1-1.7,0.8-1.7,1.7
			c0,1,0.7,1.6,1.7,1.7c1.4,0,2.8,0,4.1,0h1.7h1v6.7c0,0.6,0.2,1.2,0.5,1.5c0.3,0.3,0.7,0.4,1.1,0.4c1,0,1.7-0.8,1.7-2l0-6.7h2.5
			c1.4,0,2.8,0,4.2,0C54,50.4,54.8,49.8,54.8,48.8z"/>
	</g>
</g>
</svg>
