<svg xmlns="http://www.w3.org/2000/svg" xmlns:xlink="http://www.w3.org/1999/xlink" width="48" height="48" viewBox="0 0 48 48">
  <defs>
    <filter id="Rectangle_85" x="-0.5" y="5.5" width="49" height="39" filterUnits="userSpaceOnUse">
      <feOffset dy="1" input="SourceAlpha"/>
      <feGaussianBlur stdDeviation="0.5" result="blur"/>
      <feFlood flood-opacity="0.161"/>
      <feComposite operator="in" in2="blur"/>
      <feComposite in="SourceGraphic"/>
    </filter>
    <clipPath id="clip-Add_Favorites_-_90x90">
      <rect width="48" height="48"/>
    </clipPath>
  </defs>
  <g id="Add_Favorites_-_90x90" data-name="Add Favorites - 90x90" clip-path="url(#clip-Add_Favorites_-_90x90)">
    <g id="Group_107" data-name="Group 107" transform="translate(-324.917 -254.838)">
      <g transform="matrix(1, 0, 0, 1, 324.92, 254.84)" filter="url(#Rectangle_85)">
        <rect id="Rectangle_85-2" data-name="Rectangle 85" width="46" height="36" rx="2" transform="translate(1 6)" fill="#fff"/>
      </g>
      <path id="Path_145" data-name="Path 145" d="M1803.192,1761.3c-.4-4.372-3.523-7.546-7.425-7.546a7.3,7.3,0,0,0-5.931,3.04,7.092,7.092,0,0,0-5.8-3.041c-3.9,0-7.024,3.171-7.425,7.534a7.783,7.783,0,0,0,.224,2.88,12.045,12.045,0,0,0,3.7,6.184l9.277,8.418,9.436-8.416a12.027,12.027,0,0,0,3.7-6.178A7.817,7.817,0,0,0,1803.192,1761.3Z" transform="translate(-1441.57 -1486.686)" fill="#454444"/>
      <path id="Path_190" data-name="Path 190" d="M1626.391,1887.891h-4.216v-4.215h-1.46v4.215H1616.5v1.46h4.215v4.215h1.46v-4.215h4.216Z" transform="translate(-1273.117 -1608.586)" fill="#fff"/>
    </g>
  </g>
</svg>
