<?xml version="1.0" encoding="utf-8"?>
<!-- Generator: Adobe Illustrator 25.3.1, SVG Export Plug-In . SVG Version: 6.00 Build 0)  -->
<svg version="1.1" id="Layer_1" xmlns="http://www.w3.org/2000/svg" xmlns:xlink="http://www.w3.org/1999/xlink" x="0px" y="0px"
	 viewBox="0 0 90 90" style="enable-background:new 0 0 90 90;" xml:space="preserve">
<style type="text/css">
	.st0{fill:#989898;}
</style>
<g>
	<g>
		<path class="st0" d="M44.1,78.5l-31-31c0,0-14.4-14.6,2.9-27.4c0,0,8.3-5.8,17.8-0.9c0,0,4.3,2.4,7.4,6.2c0,0,2.9,4.3,6.5-0.5
			c0,0,4.6-5.2,8-6.3c0,0,8.5-4,16.7,1.5c0,0,10.5,6.2,7.3,19.8c0,0-1.7,4.6-3.4,6.4L44.1,78.5z"/>
		<path d="M77.9,19.4c-4.3-4.3-9.9-6.6-16-6.6c-6,0-11.7,2.3-16,6.6l-1.9,1.9l-1.9-1.9c-4.3-4.3-9.9-6.6-16-6.6
			c-6,0-11.7,2.3-16,6.6c-4.3,4.3-6.6,9.9-6.6,16c0,6,2.3,11.7,6.6,16l31.9,31.9c0.5,0.5,1.2,0.8,1.9,0.8c0.7,0,1.4-0.3,1.9-0.8
			l31.9-31.9C86.7,42.5,86.7,28.2,77.9,19.4L77.9,19.4z M74,47.5l-30,29.9L14.1,47.5c-3.2-3.2-5-7.5-5-12.1s1.8-8.9,5-12.1
			c3.2-3.2,7.5-5,12.1-5c4.6,0,8.9,1.8,12.1,5l3.8,3.8c1.1,1.1,2.8,1.1,3.9,0l3.8-3.8c3.2-3.2,7.5-5,12.1-5c4.6,0,8.9,1.8,12.1,5
			C80.7,29.9,80.7,40.8,74,47.5z"/>
	</g>
	<path d="M54,45.6c-0.4-0.4-0.9-0.6-1.4-0.6l-6.8-0.1l0.1-6.8c0-0.5-0.2-1-0.6-1.4c-0.4-0.4-0.9-0.6-1.4-0.6c-0.5,0-1,0.2-1.4,0.6
		C42.2,37,42,37.5,42,38.1l-0.1,6.8l-6.8-0.1c-0.5,0-1,0.2-1.4,0.6c-0.4,0.4-0.6,0.9-0.6,1.4c0,0.5,0.2,1,0.6,1.4
		c0.4,0.4,0.9,0.6,1.4,0.6l6.8,0.1l-0.1,6.8c0,0.5,0.2,1,0.6,1.4c0.4,0.4,0.9,0.6,1.4,0.6c0,0,0,0,0,0c1.1,0,2-0.9,2-1.9l0.1-6.8
		l6.8,0.1c0.5,0,1-0.2,1.4-0.6c0.4-0.4,0.6-0.9,0.6-1.4C54.5,46.4,54.3,45.9,54,45.6z"/>
</g>
</svg>
