<?xml version="1.0" encoding="utf-8"?>
<!-- Generator: Adobe Illustrator 25.3.1, SVG Export Plug-In . SVG Version: 6.00 Build 0)  -->
<svg version="1.1" id="Layer_1" xmlns="http://www.w3.org/2000/svg" xmlns:xlink="http://www.w3.org/1999/xlink" x="0px" y="0px"
	 viewBox="0 0 90 90" style="enable-background:new 0 0 90 90;" xml:space="preserve">
<style type="text/css">
	.st0{fill:#E7E7E7;}
</style>
<g>
	<path class="st0" d="M45.1,78.8l-31-31c0,0-14.4-14.6,2.9-27.4c0,0,8.3-5.8,17.8-0.9c0,0,4.3,2.4,7.4,6.2c0,0,2.9,4.3,6.5-0.5
		c0,0,4.6-5.2,8-6.3c0,0,8.5-4,16.7,1.5c0,0,10.5,6.2,7.3,19.8c0,0-1.7,4.6-3.4,6.4L45.1,78.8z"/>
	<path d="M78.9,19.7c-4.3-4.3-9.9-6.6-16-6.6c-6,0-11.7,2.3-16,6.6L45,21.6l-1.9-1.9c-4.3-4.3-9.9-6.6-16-6.6c-6,0-11.7,2.3-16,6.6
		s-6.6,9.9-6.6,16c0,6,2.3,11.7,6.6,16L43,83.6c0.5,0.5,1.2,0.8,1.9,0.8s1.4-0.3,1.9-0.8l31.9-31.9C87.7,42.8,87.7,28.5,78.9,19.7
		L78.9,19.7z M75,47.8L45,77.7L15.1,47.8c-3.2-3.2-5-7.5-5-12.1s1.8-8.9,5-12.1s7.5-5,12.1-5s8.9,1.8,12.1,5l3.8,3.8
		c1.1,1.1,2.8,1.1,3.9,0l3.8-3.8c3.2-3.2,7.5-5,12.1-5s8.9,1.8,12.1,5C81.7,30.2,81.7,41.1,75,47.8z"/>
	<path d="M54.8,47.6c-0.3-0.4-0.8-0.6-1.3-0.6l-6.5-0.1l0.1-6.5c0-0.5-0.2-1-0.5-1.3s-0.8-0.6-1.3-0.6c-0.5,0-1,0.2-1.3,0.5
		c-0.4,0.3-0.6,0.8-0.6,1.3l-0.1,6.5l-6.5-0.1c-0.5,0-1,0.2-1.3,0.5c-0.4,0.3-0.6,0.8-0.6,1.3c0,0.5,0.2,1,0.5,1.3
		c0.3,0.4,0.8,0.6,1.3,0.6l6.5,0.1L43,57.2c0,0.5,0.2,1,0.5,1.3c0.3,0.4,0.8,0.6,1.3,0.6c0,0,0,0,0,0c1,0,1.9-0.8,1.9-1.9l0.1-6.5
		l6.5,0.1c0.5,0,1-0.2,1.3-0.5c0.4-0.3,0.6-0.8,0.6-1.3S55.1,47.9,54.8,47.6z"/>
</g>
</svg>
