<svg xmlns="http://www.w3.org/2000/svg" xmlns:xlink="http://www.w3.org/1999/xlink" width="48" height="48" viewBox="0 0 48 48">
  <defs>
    <filter id="Rectangle_85" x="-0.5" y="5.5" width="49" height="39" filterUnits="userSpaceOnUse">
      <feOffset dy="1" input="SourceAlpha"/>
      <feGaussianBlur stdDeviation="0.5" result="blur"/>
      <feFlood flood-opacity="0.161"/>
      <feComposite operator="in" in2="blur"/>
      <feComposite in="SourceGraphic"/>
    </filter>
    <clipPath id="clip-Remove_Favorites_-_90x90">
      <rect width="48" height="48"/>
    </clipPath>
  </defs>
  <g id="Remove_Favorites_-_90x90" data-name="Remove Favorites - 90x90" clip-path="url(#clip-Remove_Favorites_-_90x90)">
    <g id="Group_107" data-name="Group 107" transform="translate(-324.917 -254.838)">
      <g transform="matrix(1, 0, 0, 1, 324.92, 254.84)" filter="url(#Rectangle_85)">
        <rect id="Rectangle_85-2" data-name="Rectangle 85" width="46" height="36" rx="2" transform="translate(1 6)" fill="#fff"/>
      </g>
      <path id="Path_145" data-name="Path 145" d="M1803.227,1761.312c-.4-4.378-3.528-7.556-7.435-7.556a7.306,7.306,0,0,0-5.939,3.043,7.1,7.1,0,0,0-5.808-3.045c-3.906,0-7.033,3.175-7.435,7.544a7.792,7.792,0,0,0,.224,2.884,12.063,12.063,0,0,0,3.707,6.192l9.289,8.429,9.448-8.427a12.043,12.043,0,0,0,3.706-6.186A7.831,7.831,0,0,0,1803.227,1761.312Z" transform="translate(-1441.559 -1486.678)" fill="#454444"/>
      <path id="Path_190" data-name="Path 190" d="M1626.4,1886.454h-9.9v1.462h9.9Z" transform="translate(-1273.094 -1608.644)" fill="#fff"/>
    </g>
  </g>
</svg>
