<?xml version="1.0" encoding="utf-8"?>
<!-- Generator: Adobe Illustrator 25.3.1, SVG Export Plug-In . SVG Version: 6.00 Build 0)  -->
<svg version="1.1" id="Layer_1" xmlns="http://www.w3.org/2000/svg" xmlns:xlink="http://www.w3.org/1999/xlink" x="0px" y="0px"
	 width="24px" height="24px" viewBox="0 0 24 24" enable-background="new 0 0 24 24" xml:space="preserve">
<g>
	<circle id="Ellipse_2_2_" fill="#E7E7E7" cx="12" cy="12.1" r="9.5"/>
	<g id="Ellipse_5" transform="matrix(-0.899, 0.438, -0.438, -0.899, 2197.709, 565.065)">
		<g>
			<circle fill="none" cx="1722.6" cy="1454.5" r="11.2"/>
		</g>
		<g>
			<path d="M1727.5,1444.4c1.1,0.5,2.1,1.3,3,2.2c2.1,2.1,3.3,4.9,3.3,7.9c0,3-1.2,5.8-3.3,7.9c-2.1,2.1-4.9,3.3-7.9,3.3
				c-6.2,0-11.2-5-11.2-11.2c0-6.2,5-11.2,11.2-11.2l0,1l0-1C1724.4,1443.3,1726,1443.7,1727.5,1444.4z M1718.6,1462.7
				c1.2,0.6,2.6,0.9,4,0.9c2.4,0,4.7-1,6.5-2.7c1.7-1.7,2.7-4,2.7-6.5c0-2.4-1-4.7-2.7-6.5c-1.7-1.7-4-2.7-6.5-2.7
				c-5.1,0-9.2,4.1-9.2,9.2C1713.5,1458.1,1715.6,1461.2,1718.6,1462.7z"/>
		</g>
	</g>
	<polygon points="16.4,14.8 13.2,11.6 16.4,8.4 15.2,7.2 12,10.4 8.8,7.2 7.6,8.4 10.8,11.6 7.6,14.8 8.8,16 12,12.7 15.2,16 	"/>
</g>
</svg>
