<?xml version="1.0" encoding="utf-8"?>
<!-- Generator: Adobe Illustrator 25.3.1, SVG Export Plug-In . SVG Version: 6.00 Build 0)  -->
<svg version="1.1" id="Layer_1" xmlns="http://www.w3.org/2000/svg" xmlns:xlink="http://www.w3.org/1999/xlink" x="0px" y="0px"
	 viewBox="0 0 90 90" style="enable-background:new 0 0 90 90;" xml:space="preserve">
<style type="text/css">
	.st0{fill:#989898;}
</style>
<g>
	<path class="st0" d="M44.6,76.6L13.5,45.5c0,0-14.5-14.6,2.9-27.5c0,0,8.3-5.8,17.8-0.9c0,0,4.3,2.4,7.4,6.2c0,0,2.9,4.3,6.5-0.5
		c0,0,4.7-5.2,8.1-6.3c0,0,8.6-4,16.7,1.5c0,0,10.5,6.2,7.3,19.8c0,0-1.7,4.6-3.4,6.4L44.6,76.6z"/>
	<path d="M78.5,17.4c-4.3-4.3-10-6.6-16-6.6c-6,0-11.7,2.4-16,6.6l-1.9,1.9l-1.9-1.9c-4.3-4.3-10-6.6-16-6.6c-6,0-11.7,2.4-16,6.6
		c-4.3,4.3-6.6,10-6.6,16c0,6,2.4,11.7,6.6,16l32,32c0.5,0.5,1.2,0.8,1.9,0.8c0.7,0,1.4-0.3,1.9-0.8l32-32
		C87.4,40.6,87.4,26.3,78.5,17.4L78.5,17.4z M74.7,45.6l-30,30l-30-30c-3.2-3.2-5-7.5-5-12.1s1.8-8.9,5-12.1c3.2-3.2,7.5-5,12.1-5
		c4.6,0,8.9,1.8,12.1,5l3.8,3.8c1.1,1.1,2.8,1.1,3.9,0l3.8-3.8c3.2-3.2,7.5-5,12.1-5c4.6,0,8.9,1.8,12.1,5
		C81.4,28,81.4,38.9,74.7,45.6z"/>
	<path d="M53.6,40.4H35.7c-1.3,0-2.4,1.1-2.4,2.4c0,1.3,1.1,2.4,2.4,2.4h17.9c1.3,0,2.4-1.1,2.4-2.4C56,41.4,54.9,40.4,53.6,40.4z"
		/>
</g>
</svg>
