<svg xmlns="http://www.w3.org/2000/svg" xmlns:xlink="http://www.w3.org/1999/xlink" width="48" height="48" viewBox="0 0 48 48">
  <defs>
    <clipPath id="clip-Add_Favorites_HSelect_-_48x48">
      <rect width="48" height="48"/>
    </clipPath>
  </defs>
  <g id="Add_Favorites_HSelect_-_48x48" data-name="Add Favorites HSelect - 48x48" clip-path="url(#clip-Add_Favorites_HSelect_-_48x48)">
    <g id="Group_107" data-name="Group 107" transform="translate(-324.917 -254.838)">
      <rect id="Rectangle_85" data-name="Rectangle 85" width="46" height="36" rx="2" transform="translate(325.917 260.838)" fill="#e04841"/>
      <path id="Path_145" data-name="Path 145" d="M1799.1,1760.142c-.339-3.7-2.981-6.386-6.283-6.386a6.174,6.174,0,0,0-5.019,2.572,6,6,0,0,0-4.908-2.574c-3.3,0-5.944,2.683-6.283,6.376a6.582,6.582,0,0,0,.189,2.437,10.192,10.192,0,0,0,3.133,5.233l7.85,7.124,7.985-7.122a10.178,10.178,0,0,0,3.132-5.228A6.612,6.612,0,0,0,1799.1,1760.142Z" transform="translate(-1438.648 -1485.917)" fill="#fff"/>
    </g>
  </g>
</svg>
