<?xml version="1.0" encoding="utf-8"?>
<!-- Generator: Adobe Illustrator 25.3.1, SVG Export Plug-In . SVG Version: 6.00 Build 0)  -->
<svg version="1.1" id="Layer_1" xmlns="http://www.w3.org/2000/svg" xmlns:xlink="http://www.w3.org/1999/xlink" x="0px" y="0px"
	 width="24px" height="24px" viewBox="0 0 24 24" style="enable-background:new 0 0 24 24;" xml:space="preserve">
<style type="text/css">
	.st0{fill:#E5E5E5;}
	.st1{fill:#7F7F7F;}
	.st2{fill:#727373;}
</style>
<rect x="4.8" y="6.6" class="st0" width="13" height="14.9"/>
<path class="st1" d="M20.6,5.9L20.6,5.9c-0.2-0.2-0.4-0.3-0.6-0.3c0,0,0,0-0.1,0l-3.8,0v-1c0-1.5-1.3-2.8-2.8-2.8H9.5
	C7.9,1.8,6.7,3,6.7,4.6v1l-3.8,0c-0.3,0-0.5,0.1-0.7,0.2C2.1,6,2,6.2,1.9,6.4c0,0.2,0.1,0.5,0.2,0.7c0.2,0.2,0.4,0.3,0.6,0.3
	c0,0,0,0,0.1,0l0.8,0h0.2v12.2c0,1.5,1.3,2.8,2.8,2.8h9.4c1.5,0,2.8-1.3,2.8-2.8V7.4l0.9,0c0.3,0,0.5-0.1,0.7-0.2
	c0.2-0.2,0.3-0.4,0.3-0.6C20.8,6.3,20.7,6,20.6,5.9z M8.5,3.6h5.7v1.9H8.5V3.6z M17,20.6H5.7V7.4H17V20.6z"/>
<path id="Path_113_3_" class="st2" d="M10.2,16.3L10.2,16.3v-4.8c0-0.3-0.3-0.6-0.6-0.6c-0.3,0-0.6,0.3-0.6,0.6c0,0,0,0,0,0.1l0,5.1
	C9.5,17.2,10.2,16.8,10.2,16.3z"/>
<path id="Path_114_3_" class="st2" d="M13.3,16.3L13.3,16.3v-4.8c0-0.3-0.3-0.6-0.6-0.6c-0.3,0-0.6,0.3-0.6,0.6c0,0,0,0,0,0.1l0,5.1
	C12.6,17.2,13.3,16.8,13.3,16.3z"/>
</svg>
