<?xml version="1.0" encoding="utf-8"?>
<!-- Generator: Adobe Illustrator 25.3.1, SVG Export Plug-In . SVG Version: 6.00 Build 0)  -->
<svg version="1.1" id="Layer_1" xmlns="http://www.w3.org/2000/svg" xmlns:xlink="http://www.w3.org/1999/xlink" x="0px" y="0px"
	 width="24px" height="24px" viewBox="0 0 24 24" style="enable-background:new 0 0 24 24;" xml:space="preserve">
<style type="text/css">
	.st0{fill:#E5E5E5;}
	.st1{fill:#7F7F7F;}
</style>
<polygon class="st0" points="4.2,17.3 3.5,21.7 8.2,20.2 4.9,17 "/>
<polygon class="st0" points="4.6,16.6 16.2,3.5 20.2,7.1 8.6,20.2 "/>
<path class="st1" d="M20.4,6.2l-3.4-3.1c-0.2-0.2-0.5-0.3-0.8-0.3c-0.3,0-0.5,0.1-0.7,0.4L3.8,16.3l-1.1,5.5l-0.1,0.4l0.6,0.5l6.2-2
	l0,0l11-13C20.8,7.2,20.8,6.6,20.4,6.2z M8.6,19.5l-3.2-3l8.7-9.9l3.1,2.8L8.6,19.5L8.6,19.5z M4.2,21l0.6-3.1L7.2,20L4.2,21z
	 M19.3,7L18,8.5L15,5.7l1.3-1.4L19.3,7z"/>
</svg>
