<?xml version="1.0" encoding="utf-8"?>
<!-- Generator: Adobe Illustrator 25.3.1, SVG Export Plug-In . SVG Version: 6.00 Build 0)  -->
<svg version="1.1" id="Layer_1" xmlns="http://www.w3.org/2000/svg" xmlns:xlink="http://www.w3.org/1999/xlink" x="0px" y="0px"
	 viewBox="0 0 90 90" style="enable-background:new 0 0 90 90;" xml:space="preserve">
<style type="text/css">
	.st0{fill:#E7E7E7;}
</style>
<g>
	<g>
		<path class="st0" d="M76.6,45.1c0-18.2-14.7-33-32.8-33s-32.8,14.8-32.8,33s14.7,33,32.8,33c7.4,0,14.3-2.5,19.8-6.7l0,0l7.6,1.5
			c0,0-0.7-4.2-1.3-7.9C74.1,59.4,76.6,52.6,76.6,45.1z"/>
		<g>
			<path d="M75.4,66.2c-0.3-1.4-0.6-2.9-0.5-4.4c0.1-1.2,0.6-2.4,1.1-3.6c0.1-0.2,0.2-0.5,0.3-0.7c5.1-13.4,1-29.9-9.8-39.3
				C54.7,8,36.2,6.9,23.5,15.6C12.4,23.3,6.3,37.2,8.3,50.4c2.3,14.8,14.8,27.2,29.8,29.5c1.7,0.2,3.4,0.4,5.1,0.4
				c4.2,0,8.3-0.8,12.2-2.3c0.2-0.1,0.5-0.2,0.8-0.3c1.2-0.5,2.5-1,3.8-1.1c1.4-0.1,2.8,0.2,4.2,0.4l8.2,1.7
				c1.5,0.3,3.2,0.5,4.2-0.6c0.1-0.2,0.3-0.3,0.4-0.5l0,0c0.6-1,0.4-2.3,0.1-3.6L75.4,66.2z M69.2,61.9c0.5,2.4,0.9,4.7,1.4,7.2
				c0.2,1,0.4,1.9,0.6,2.9l0.2,1l-1-0.2c-0.9-0.2-1.9-0.4-2.8-0.5l-0.1,0c-2.4-0.5-4.7-0.9-7-1.4c-1.1-0.2-2-0.1-3.2,0.5
				c-11.4,5.6-22.1,4.7-32-2.5C13.9,60.5,10.1,45.5,16,32.4c3.4-7.5,9.9-13.3,17.9-15.9c3.1-1,6.3-1.5,9.5-1.5c5,0,10,1.2,14.3,3.7
				c7,3.9,12.1,10.2,14.3,17.8c0.8,2.8,1.2,5.6,1.2,8.4c0,4.9-1.2,9.9-3.6,14.3C69.1,60,69,60.9,69.2,61.9z"/>
		</g>
	</g>
	<g>
		<path d="M45.2,39.1L45.2,39.1c-0.7-0.3-1.3-0.4-2-0.4c-0.6,0-1.3,0.1-2,0.4c-0.6,0.3-0.9,0.7-0.9,1.4c0,5.4,0,10.8,0,16.8
			c0,0.6,0.2,1,0.7,1.4c1.2,0.8,3.2,0.7,4.4-0.1c0.5-0.3,0.6-0.7,0.6-1.2c0-2,0-4.1,0-6.1v-2.3c0-0.7,0-1.3,0-2v-0.4c0-2,0-4,0-6
			C46.1,39.8,45.8,39.4,45.2,39.1z"/>
		<path d="M46.2,30.2c0.2-1.3-0.8-2.8-2-3.2c-0.2-0.1-0.5-0.1-0.8-0.2c-0.1,0-0.2,0-0.3,0c-0.8,0-1.6,0.4-2.2,1
			c-0.5,0.6-0.8,1.4-0.8,2.3l0,0c0.1,1.6,1.5,3,3,3C44.7,33,46,31.8,46.2,30.2z"/>
	</g>
</g>
</svg>
