<?xml version="1.0" encoding="utf-8"?>
<!-- Generator: Adobe Illustrator 25.3.1, SVG Export Plug-In . SVG Version: 6.00 Build 0)  -->
<svg version="1.1" id="Layer_1" xmlns="http://www.w3.org/2000/svg" xmlns:xlink="http://www.w3.org/1999/xlink" x="0px" y="0px"
	 viewBox="0 0 90 90" style="enable-background:new 0 0 90 90;" xml:space="preserve">
<style type="text/css">
	.st0{fill:#BCBCBC;}
</style>
<g>
	<g>
		<path class="st0" d="M77.88,44.61c0-18.22-14.66-33-32.75-33s-32.75,14.77-32.75,33s14.66,33,32.75,33c7.44,0,14.3-2.5,19.8-6.71
			l0,0l7.63,1.46c0,0-0.67-4.22-1.26-7.9C75.42,58.94,77.88,52.06,77.88,44.61z"/>
		<g>
			<path d="M76.71,65.71c-0.3-1.44-0.62-2.93-0.46-4.4c0.14-1.23,0.6-2.42,1.06-3.57c0.09-0.23,0.18-0.47,0.27-0.7
				c5.11-13.38,0.97-29.91-9.84-39.31C55.98,7.51,37.52,6.39,24.79,15.13C13.67,22.76,7.58,36.73,9.63,49.88
				c2.32,14.84,14.85,27.24,29.79,29.49c1.68,0.25,3.38,0.38,5.07,0.38c4.18,0,8.34-0.77,12.25-2.27c0.25-0.1,0.51-0.2,0.76-0.3
				c1.21-0.48,2.45-0.98,3.75-1.11c1.4-0.14,2.8,0.15,4.16,0.43l8.21,1.7c1.52,0.32,3.22,0.49,4.25-0.59
				c0.14-0.15,0.26-0.31,0.36-0.49h0c0.57-1.02,0.4-2.33,0.13-3.61L76.71,65.71z M70.51,61.4c0.48,2.37,0.92,4.7,1.4,7.19
				c0.18,0.97,0.37,1.94,0.56,2.93l0.19,0.98l-0.99-0.19c-0.95-0.18-1.9-0.36-2.83-0.54l-0.07-0.01c-2.42-0.46-4.7-0.88-7.03-1.37
				c-1.07-0.22-2.01-0.08-3.15,0.48c-11.38,5.57-22.13,4.73-31.97-2.51c-11.41-8.4-15.24-23.4-9.3-36.49
				c3.4-7.49,9.91-13.29,17.87-15.92c3.1-1.02,6.3-1.53,9.49-1.53c5,0,9.95,1.24,14.34,3.68c7.01,3.9,12.09,10.22,14.32,17.81
				c0.81,2.75,1.22,5.58,1.22,8.43c0,4.93-1.25,9.87-3.63,14.3C70.44,59.55,70.31,60.42,70.51,61.4z"/>
		</g>
	</g>
	<g>
		<path d="M46.51,38.61L46.51,38.61c-0.65-0.29-1.33-0.44-2-0.44c-0.64,0-1.3,0.13-1.95,0.39c-0.64,0.26-0.92,0.69-0.92,1.44
			c0.02,5.36,0.02,10.84,0,16.76c0,0.64,0.21,1.03,0.74,1.36c1.21,0.76,3.22,0.72,4.39-0.1c0.46-0.32,0.64-0.66,0.64-1.19
			c-0.02-2.05-0.02-4.13-0.01-6.14l0-2.33c0-0.67,0-1.34,0-2.01l0-0.37c0-1.97-0.01-4,0.02-6.01
			C47.42,39.29,47.16,38.89,46.51,38.61z"/>
		<path d="M47.53,29.66c0.15-1.34-0.76-2.75-2.05-3.2c-0.22-0.08-0.46-0.13-0.75-0.16c-0.1-0.01-0.21-0.02-0.31-0.02
			c-0.81,0-1.58,0.37-2.16,1.04c-0.55,0.63-0.83,1.44-0.79,2.26v0c0.07,1.61,1.46,2.97,3.05,2.97
			C46.03,32.55,47.36,31.28,47.53,29.66z"/>
	</g>
</g>
</svg>
