<svg xmlns="http://www.w3.org/2000/svg" xmlns:xlink="http://www.w3.org/1999/xlink" width="48" height="48" viewBox="0 0 48 48">
  <defs>
    <filter id="Rectangle_86" x="-0.5" y="5.5" width="49" height="39" filterUnits="userSpaceOnUse">
      <feOffset dy="1" input="SourceAlpha"/>
      <feGaussianBlur stdDeviation="0.5" result="blur"/>
      <feFlood flood-opacity="0.161"/>
      <feComposite operator="in" in2="blur"/>
      <feComposite in="SourceGraphic"/>
    </filter>
    <clipPath id="clip-Add_Information_-_90x90">
      <rect width="48" height="48"/>
    </clipPath>
  </defs>
  <g id="Add_Information_-_90x90" data-name="Add Information - 90x90" clip-path="url(#clip-Add_Information_-_90x90)">
    <g id="Group_106" data-name="Group 106" transform="translate(-324.959 -480.871)">
      <g transform="matrix(1, 0, 0, 1, 324.96, 480.87)" filter="url(#Rectangle_86)">
        <rect id="Rectangle_86-2" data-name="Rectangle 86" width="46" height="36" rx="2" transform="translate(1 6)" fill="#fff"/>
      </g>
      <g id="Group_88" data-name="Group 88" transform="translate(336.836 493.613)">
        <path id="Path_163" data-name="Path 163" d="M2127.656,1343.073l-1.583-4.611a11.692,11.692,0,0,0,1.17-5.067,11.611,11.611,0,1,0-11.62,11.6,11.734,11.734,0,0,0,5.086-1.171l4.61,1.584a1.815,1.815,0,0,0,.594.1,1.859,1.859,0,0,0,1.3-.538A1.826,1.826,0,0,0,2127.656,1343.073Z" transform="translate(-2104 -1321.755)" fill="#454444"/>
        <g id="Group_87" data-name="Group 87" transform="translate(10.577 6.019)">
          <path id="Path_164" data-name="Path 164" d="M2136.44,1342.093a1.349,1.349,0,0,0,.982-.392,1.241,1.241,0,0,0,.344-.906,1.26,1.26,0,0,0-1.294-1.305,1.281,1.281,0,0,0-1.31,1.31A1.258,1.258,0,0,0,2136.44,1342.093Z" transform="translate(-2135.162 -1339.489)" fill="#fff"/>
          <rect id="Rectangle_87" data-name="Rectangle 87" width="2.265" height="8.641" transform="translate(0.177 3.076)" fill="#fff"/>
        </g>
      </g>
    </g>
  </g>
</svg>
