<svg xmlns="http://www.w3.org/2000/svg" xmlns:xlink="http://www.w3.org/1999/xlink" width="48" height="48" viewBox="0 0 48 48">
  <defs>
    <clipPath id="clip-Add_Information_-_48x48">
      <rect width="48" height="48"/>
    </clipPath>
  </defs>
  <g id="Add_Information_-_48x48" data-name="Add Information - 48x48" clip-path="url(#clip-Add_Information_-_48x48)">
    <g id="Group_106" data-name="Group 106" transform="translate(-324.959 -480.871)">
      <rect id="Rectangle_86" data-name="Rectangle 86" width="46" height="36" rx="2" transform="translate(325.959 486.871)" fill="#fff"/>
      <g id="Group_106-2" data-name="Group 106" transform="translate(-1272.191 -1385.593)">
        <path id="Path_190" data-name="Path 190" d="M1623.841,1889.653c.661-1.473.827-3.762-1.224-4.727-2.842-1.336-4.911,1.61-4.287,2.568.224.215.652-.059,1.021-.244.411-.206.75-.3.653.513-.163,1.365-3.372,9.462-.96,12.07,1.37,1.479,3.653.767,4.626-.122a1.569,1.569,0,0,0,.561-1.193c-.012-.428-.636-.406-.755-.391-2.1.269-1.369-2.45-1.25-2.97C1622.506,1893.943,1623.495,1890.424,1623.841,1889.653Z" transform="translate(0 0.013)" fill="#454444"/>
        <circle id="Ellipse_15" data-name="Ellipse 15" cx="2.191" cy="2.191" r="2.191" transform="translate(1619.459 1879.464)" fill="#454444"/>
      </g>
    </g>
  </g>
</svg>
