<?xml version="1.0" encoding="UTF-8"?>
<svg xmlns="http://www.w3.org/2000/svg" xmlns:xlink="http://www.w3.org/1999/xlink" width="24px" height="24px" viewBox="0 0 24 24" version="1.1">
<g id="surface1">
<path style=" stroke:none;fill-rule:nonzero;fill:rgb(100%,100%,100%);fill-opacity:1;" d="M 14.96875 13.535156 L 12.667969 11.234375 C 12.367188 10.933594 11.867188 10.835938 11.566406 11.132812 C 11.46875 11.132812 11.46875 11.234375 11.367188 11.335938 L 9.066406 13.632812 C 8.769531 13.933594 8.769531 14.433594 9.066406 14.734375 C 9.269531 14.933594 9.667969 15.035156 9.96875 14.933594 C 10.066406 14.933594 10.167969 14.835938 10.167969 14.734375 L 11.167969 13.734375 L 11.167969 19.835938 C 11.167969 20.234375 11.46875 20.632812 11.96875 20.632812 C 12.367188 20.632812 12.769531 20.234375 12.769531 19.835938 L 12.769531 13.734375 L 13.769531 14.734375 C 14.066406 15.035156 14.566406 15.035156 14.867188 14.734375 C 15.269531 14.433594 15.269531 13.933594 14.96875 13.535156 Z M 14.96875 13.535156 "/>
<path style=" stroke:none;fill-rule:nonzero;fill:rgb(100%,100%,100%);fill-opacity:1;" d="M 18.667969 9.335938 L 18.367188 9.335938 C 18.066406 5.835938 14.96875 3.234375 11.46875 3.535156 C 8.367188 3.835938 5.867188 6.234375 5.667969 9.335938 L 5.46875 9.335938 C 3.269531 9.335938 1.269531 10.933594 0.867188 13.132812 C 0.46875 15.632812 2.066406 17.933594 4.566406 18.335938 C 4.769531 18.335938 5.066406 18.433594 5.367188 18.433594 L 9.066406 18.433594 L 9.066406 16.835938 L 5.46875 16.835938 C 4.066406 16.835938 2.867188 15.933594 2.566406 14.535156 C 2.167969 12.933594 3.167969 11.433594 4.769531 11.035156 C 4.96875 11.035156 5.167969 10.933594 5.367188 10.933594 L 6.46875 10.933594 C 6.867188 10.933594 7.269531 10.535156 7.269531 10.132812 L 7.269531 10.035156 C 7.269531 7.632812 8.867188 5.632812 11.269531 5.234375 C 13.867188 4.835938 16.367188 6.535156 16.769531 9.132812 C 16.769531 9.433594 16.867188 9.632812 16.867188 9.933594 L 16.867188 10.234375 C 16.867188 10.632812 17.269531 11.035156 17.667969 11.035156 L 18.667969 11.035156 C 20.066406 11.035156 21.269531 11.933594 21.566406 13.335938 C 21.96875 14.933594 20.96875 16.433594 19.367188 16.835938 C 19.167969 16.835938 18.96875 16.933594 18.769531 16.933594 L 15.269531 16.933594 L 15.269531 18.535156 L 18.566406 18.535156 C 20.769531 18.535156 22.769531 16.933594 23.167969 14.734375 C 23.566406 12.234375 21.96875 9.933594 19.46875 9.535156 C 19.167969 9.335938 18.867188 9.335938 18.667969 9.335938 Z M 18.667969 9.335938 "/>
</g>
</svg>
