<?xml version="1.0" encoding="utf-8"?>
<!-- Generator: Adobe Illustrator 25.3.1, SVG Export Plug-In . SVG Version: 6.00 Build 0)  -->
<svg version="1.1" id="Layer_1" xmlns="http://www.w3.org/2000/svg" xmlns:xlink="http://www.w3.org/1999/xlink" x="0px" y="0px"
	 viewBox="0 0 24 24" style="enable-background:new 0 0 24 24;" xml:space="preserve">
<style type="text/css">
	.st0{fill:#FFFFFF;}
</style>
<g id="Group_7" transform="translate(-1171.432 -460.566)">
	<path id="Path_1" class="st0" d="M1186.4,474.1l-2.3-2.3c-0.3-0.3-0.8-0.4-1.1-0.1c0,0,0,0,0,0c-0.1,0-0.1,0.1-0.2,0.2l-2.3,2.3
		c-0.3,0.3-0.3,0.8,0,1.1c0.2,0.2,0.6,0.3,0.9,0.2c0.1,0,0.2-0.1,0.2-0.2l1-1v6.1c0,0.4,0.3,0.8,0.8,0.8c0,0,0,0,0,0h0
		c0.4,0,0.8-0.4,0.8-0.8v-6.1l1,1c0.3,0.3,0.8,0.3,1.1,0C1186.7,475,1186.7,474.5,1186.4,474.1L1186.4,474.1L1186.4,474.1z"/>
	<path id="Path_2" class="st0" d="M1190.1,469.9h-0.3c-0.3-3.5-3.4-6.1-6.9-5.8c-3.1,0.3-5.6,2.7-5.8,5.8h-0.2
		c-2.2,0-4.2,1.6-4.6,3.8c-0.4,2.5,1.2,4.8,3.7,5.2c0.2,0,0.5,0.1,0.8,0.1h3.7v-1.6h-3.6c-1.4,0-2.6-0.9-2.9-2.3
		c-0.4-1.6,0.6-3.1,2.2-3.5c0.2,0,0.4-0.1,0.6-0.1h1.1c0.4,0,0.8-0.4,0.8-0.8v-0.1c0-2.4,1.6-4.4,4-4.8c2.6-0.4,5.1,1.3,5.5,3.9
		c0,0.3,0.1,0.5,0.1,0.8v0.3c0,0.4,0.4,0.8,0.8,0.8h1c1.4,0,2.6,0.9,2.9,2.3c0.4,1.6-0.6,3.1-2.2,3.5c-0.2,0-0.4,0.1-0.6,0.1h-3.5
		v1.6h3.3c2.2,0,4.2-1.6,4.6-3.8c0.4-2.5-1.2-4.8-3.7-5.2C1190.6,469.9,1190.3,469.9,1190.1,469.9z"/>
</g>
</svg>
