<?xml version="1.0" encoding="utf-8"?>
<!-- Generator: Adobe Illustrator 25.3.1, SVG Export Plug-In . SVG Version: 6.00 Build 0)  -->
<svg version="1.1" id="Layer_1" xmlns="http://www.w3.org/2000/svg" xmlns:xlink="http://www.w3.org/1999/xlink" x="0px" y="0px"
	 width="24px" height="24px" viewBox="0 0 24 24" style="enable-background:new 0 0 24 24;" xml:space="preserve">
<style type="text/css">
	.st0{fill:#E50019;}
	.st1{fill:#FFFFFF;}
</style>
<g id="Group_16" transform="translate(-297.041 -1320.336)">
	<circle id="Ellipse_7" class="st0" cx="309" cy="1332.3" r="11"/>
	<path id="Path_12" class="st1" d="M308.4,1333l-0.3-4.3c-0.1-0.8-0.1-1.4-0.1-1.8s0.1-0.8,0.4-1.2c0.3-0.3,0.6-0.4,1-0.4
		c0.4-0.1,0.8,0.2,1,0.5c0.2,0.5,0.3,1,0.3,1.5c0,0.4,0,0.8-0.1,1.2l-0.4,4.5c0,0.4-0.1,0.8-0.3,1.2c-0.1,0.3-0.4,0.4-0.7,0.4
		c-0.3,0-0.6-0.1-0.7-0.4C308.5,1333.9,308.4,1333.5,308.4,1333z M309.4,1339c-0.4,0-0.7-0.1-1-0.4s-0.4-0.6-0.4-1
		c0-0.7,0.6-1.3,1.3-1.3l0,0c0.4,0,0.7,0.1,1,0.4c0.3,0.2,0.4,0.6,0.4,1s-0.1,0.7-0.4,1C310.1,1338.9,309.7,1339,309.4,1339
		L309.4,1339z"/>
</g>
</svg>
