<?xml version="1.0" encoding="utf-8"?>
<!-- Generator: Adobe Illustrator 25.3.1, SVG Export Plug-In . SVG Version: 6.00 Build 0)  -->
<svg version="1.1" id="Layer_1" xmlns="http://www.w3.org/2000/svg" xmlns:xlink="http://www.w3.org/1999/xlink" x="0px" y="0px"
	 width="24px" height="24px" viewBox="0 0 24 24" style="enable-background:new 0 0 24 24;" xml:space="preserve">
<style type="text/css">
	.st0{fill:#E50019;stroke:#FFFFFF;stroke-width:1.0406;stroke-miterlimit:10;}
	.st1{fill:#FFFFFF;}
</style>
<g id="Group_16_1_" transform="translate(-297.041 -1320.336)">
	<circle id="Ellipse_7_1_" class="st0" cx="309.4" cy="1332.9" r="10.5"/>
	<path id="Path_12_1_" class="st1" d="M308.8,1333.6l-0.3-4.1c-0.1-0.8-0.1-1.3-0.1-1.7s0.1-0.8,0.4-1.1c0.3-0.3,0.6-0.4,1-0.4
		c0.4-0.1,0.8,0.2,1,0.5c0.2,0.5,0.3,1,0.3,1.4c0,0.4,0,0.8-0.1,1.1l-0.4,4.3c0,0.4-0.1,0.8-0.3,1.1c-0.1,0.3-0.4,0.4-0.7,0.4
		c-0.3,0-0.6-0.1-0.7-0.4C308.9,1334.4,308.8,1334,308.8,1333.6z M309.8,1339.3c-0.4,0-0.7-0.1-1-0.4c-0.3-0.3-0.4-0.6-0.4-1
		c0-0.7,0.6-1.2,1.2-1.2l0,0c0.4,0,0.7,0.1,1,0.4c0.3,0.2,0.4,0.6,0.4,1c0,0.4-0.1,0.7-0.4,1
		C310.5,1339.2,310.1,1339.3,309.8,1339.3L309.8,1339.3z"/>
</g>
</svg>
