<?xml version="1.0" encoding="utf-8"?>
<!-- Generator: Adobe Illustrator 27.1.1, SVG Export Plug-In . SVG Version: 6.00 Build 0)  -->
<svg version="1.1" id="Layer_1" xmlns="http://www.w3.org/2000/svg" xmlns:xlink="http://www.w3.org/1999/xlink" x="0px" y="0px"
	 viewBox="0 0 324.7 281.8" style="enable-background:new 0 0 324.7 281.8;" xml:space="preserve">
<style type="text/css">
	.st0{fill:#49021F;}
	.st1{fill:url(#SVGID_1_);}
	.st2{fill:none;stroke:#FFFFFF;stroke-width:5.01;stroke-miterlimit:4.01;}
	.st3{fill:url(#SVGID_00000150784550138297601330000002810813965095777926_);}
	.st4{fill:#FFFFFF;}
	.st5{fill:#FC2A51;}
	.st6{fill:#FF3366;}
</style>
<path id="Rectangle_89-3" class="st0" d="M4,0.6L172.9,0c2.2,0,4,1.8,4,4l0.8,218c0,2.2-1.8,4-4,4L4.9,226.7c-2.2,0-4-1.8-4-4L0,4.7
	C0,2.5,1.8,0.7,4,0.6z"/>
<g id="Group_162">
	<g id="Rectangle_89-4">
		
			<linearGradient id="SVGID_1_" gradientUnits="userSpaceOnUse" x1="326.6479" y1="-30.1976" x2="326.6479" y2="-29.0678" gradientTransform="matrix(176.9187 -0.6793 0.8678 226.0083 -57528.6484 7090.4961)">
			<stop  offset="0" style="stop-color:#FFFFFF"/>
			<stop  offset="1" style="stop-color:#EEEEEE"/>
		</linearGradient>
		<path class="st1" d="M150.9,55.8l168.9-0.6c2.2,0,4,1.8,4,4l0.8,218c0,2.2-1.8,4-4,4l-168.9,0.6c-2.2,0-4-1.8-4-4l-0.8-218
			C146.9,57.6,148.7,55.8,150.9,55.8z"/>
		<path class="st2" d="M150.9,58.3l168.9-0.6c0.8,0,1.5,0.7,1.5,1.5l0.8,218c0,0.8-0.7,1.5-1.5,1.5l-168.9,0.6
			c-0.8,0-1.5-0.7-1.5-1.5l-0.8-218C149.4,59,150.1,58.3,150.9,58.3z"/>
	</g>
</g>
<linearGradient id="SVGID_00000086682167057850315720000009081140953698832310_" gradientUnits="userSpaceOnUse" x1="195.5732" y1="-138.7394" x2="291.6554" y2="-6.2609" gradientTransform="matrix(1 0 0 1 0 258)">
	<stop  offset="0.2" style="stop-color:#FC2A51"/>
	<stop  offset="0.2" style="stop-color:#FA2953"/>
	<stop  offset="0.41" style="stop-color:#D7179C"/>
	<stop  offset="0.58" style="stop-color:#BD0AD1"/>
	<stop  offset="0.71" style="stop-color:#AD02F2"/>
	<stop  offset="0.78" style="stop-color:#A700FF"/>
</linearGradient>
<circle style="fill:url(#SVGID_00000086682167057850315720000009081140953698832310_);" cx="232.38" cy="170.01" r="53.36"/>
<path class="st4" d="M232.38,219.33c-27.2,0-49.32-22.12-49.32-49.32s22.12-49.32,49.32-49.32s49.32,22.12,49.32,49.32
	c0,8.41-2.15,16.73-6.24,24.04c-0.88,1.58-2.87,2.14-4.45,1.26c-1.58-0.88-2.14-2.87-1.26-4.45c3.54-6.34,5.42-13.55,5.42-20.86
	c0-23.59-19.2-42.79-42.79-42.79s-42.79,19.2-42.79,42.79s19.2,42.79,42.79,42.79c6.02,0,11.86-1.22,17.32-3.65
	c1.65-0.73,3.58,0.01,4.31,1.66c0.73,1.65-0.01,3.58-1.66,4.31c-6.3,2.79-13.01,4.2-19.95,4.2L232.38,219.33z"/>
<path class="st4" d="M267.28,203.41c0,2.44-1.98,4.43-4.43,4.43s-4.43-1.99-4.43-4.43s1.98-4.43,4.43-4.43
	S267.28,200.97,267.28,203.41"/>
<path class="st4" d="M225.74,177.49c-0.11,0.11-0.29,0.18-0.41,0.18c-0.15,0-0.29-0.05-0.37-0.18l-3.16-3.1
	c-0.08-0.08-0.23-0.18-0.37-0.18h-4.8c-0.29,0-0.55,0.23-0.55,0.55c0,0.14,0.05,0.29,0.18,0.41l5.11,4.95
	c0.08,0.08,0.18,0.23,0.18,0.37c0,0.21-0.14,0.41-0.32,0.49c-1.04,0.37-2.17,0.58-3.36,0.58c-2.46,0-4.72-0.93-6.63-2.74
	c-1.85-1.77-2.79-4.09-2.79-6.86s0.89-5.27,2.69-7.12c1.8-1.88,4.09-2.81,6.86-2.81s5.04,0.96,6.89,2.81
	c1.85,1.88,2.79,4.23,2.79,7.01c-0.08,2.17-0.7,4.05-1.91,5.65 M232.75,185.27l-3.6-3.47c-0.08-0.08-0.18-0.23-0.18-0.37
	s0.05-0.26,0.15-0.34c2.22-2.64,3.36-5.61,3.36-8.92c0-4.57-1.7-8.34-5.04-11.19c-2.79-2.37-5.97-3.57-9.5-3.57
	c-3.88,0-7.27,1.36-10.14,4.09c-2.92,2.79-4.43,6.31-4.43,10.49s1.56,7.82,4.67,10.54c2.84,2.5,6.13,3.73,9.81,3.73
	c2.53,0,4.87-0.6,6.99-1.8c0.15-0.08,0.23-0.18,0.41-0.18c0.15,0,0.29,0.05,0.37,0.18l1.59,1.62c0.08,0.08,0.23,0.18,0.37,0.18h4.67
	c0.29,0,0.55-0.26,0.55-0.55C232.92,185.53,232.86,185.4,232.75,185.27"/>
<path class="st4" d="M261.29,185.59l-10.98-13.26l10.86-13.5c0.16-0.25,0.25-0.7-0.21-0.7h-5.32c-0.29,0-0.62,0.21-0.91,0.58
	l-7.44,9.79l-7.34-9.79c-0.29-0.41-0.62-0.58-0.91-0.58h-5.32c-0.45,0-0.37,0.45-0.16,0.66l10.86,13.55l-10.98,13.22
	c-0.16,0.21-0.25,0.7,0.16,0.7h5.37c0.29,0,0.62-0.21,0.91-0.58l7.51-9.66l7.48,9.66c0.29,0.41,0.62,0.58,0.91,0.58h5.32
	C261.53,186.25,261.45,185.79,261.29,185.59"/>
<path class="st5" d="M273.31,122.09h-1.72v5.81h-1.92v-5.81h-1.69v-1.4h5.32C273.31,120.69,273.31,122.09,273.31,122.09z
	 M279.99,124.14h-0.08l-1.4,3.77h-0.97l-1.47-3.98h-0.08v3.98h-1.73v-7.23h2.13l1.59,4.83h0.08l1.61-4.83h2.06v7.23H280
	C279.99,127.92,279.99,124.14,279.99,124.14z"/>
<g id="Outlined_Mnemonics_Logos_00000075846217976536928320000010735043879677036462_">
	<g id="Id_00000030445954000841465560000014394636924194648744_">
		<path class="st6" d="M62.52,75.59V144c0,0.73-0.33,1.07-0.93,1.07H48.52c-0.6,0-0.87-0.33-0.87-1.07V75.59
			c0-0.6,0.33-0.87,0.93-0.87h13c0.4-0.07,0.8,0.2,0.87,0.67C62.52,75.46,62.52,75.53,62.52,75.59z"/>
		<path class="st6" d="M100.92,146.13c-4.93,0.07-9.87-0.93-14.33-3c-4.2-1.93-7.67-5.13-10.07-9.07c-2.47-4.07-3.67-9.13-3.67-15.2
			c-0.07-4.93,1.2-9.8,3.67-14.07c2.53-4.33,6.2-7.93,10.6-10.33c4.67-2.6,10.27-3.87,16.87-3.87c0.33,0,0.8,0,1.4,0.07
			c0.6,0.07,1.27,0.07,2.07,0.13V69.73c0-0.47,0.2-0.73,0.67-0.73h13.53c0.33-0.07,0.6,0.2,0.67,0.47c0,0.07,0,0.13,0,0.13v63.47
			c0,1.2,0.07,2.53,0.13,4c0.13,1.4,0.2,2.73,0.27,3.87c0,0.47-0.2,0.87-0.67,1.07c-3.47,1.47-7.13,2.53-10.87,3.2
			C107.86,145.8,104.39,146.13,100.92,146.13z M107.46,132.8v-29.34c-0.6-0.13-1.2-0.27-1.8-0.33c-0.73-0.07-1.47-0.13-2.2-0.13
			c-2.6,0-5.2,0.53-7.53,1.73c-2.27,1.13-4.2,2.8-5.67,4.93c-1.47,2.13-2.2,5-2.2,8.47c-0.07,2.33,0.33,4.67,1.13,6.87
			c0.67,1.8,1.67,3.4,3,4.73c1.27,1.2,2.8,2.13,4.53,2.67c1.8,0.6,3.67,0.87,5.53,0.87c1,0,1.93-0.07,2.8-0.13
			C105.93,133.2,106.73,133.07,107.46,132.8z"/>
	</g>
</g>
</svg>
