<svg id="Layer_1" data-name="Layer 1" xmlns="http://www.w3.org/2000/svg" xmlns:xlink="http://www.w3.org/1999/xlink" viewBox="0 0 324.69 281.84"><defs><style>.cls-1{fill:url(#linear-gradient);}.cls-2,.cls-3{isolation:isolate;}.cls-3{font-size:100px;font-family:Avenir-Black, Avenir;font-weight:800;}.cls-3,.cls-8{fill:#fff;}.cls-4{fill:url(#linear-gradient-2);}.cls-5,.cls-6{fill:none;}.cls-5{stroke:#fff;stroke-miterlimit:4.01;stroke-width:5.01px;}.cls-7{fill:#fc2a57;}.cls-9{fill:#fc2a51;}</style><linearGradient id="linear-gradient" x1="-119.81" y1="567" x2="-119.84" y2="565.38" gradientTransform="matrix(176.92, 0, 0, -226.01, 21317.54, 128177.4)" gradientUnits="userSpaceOnUse"><stop offset="0" stop-color="#d07299"/><stop offset="1" stop-color="#b21d5a"/></linearGradient><linearGradient id="linear-gradient-2" x1="-119.82" y1="567.07" x2="-119.82" y2="565.94" gradientTransform="matrix(176.92, 0, 0, -226.01, 21464.46, 128232.57)" gradientUnits="userSpaceOnUse"><stop offset="0" stop-color="#fff"/><stop offset="1" stop-color="#eee"/></linearGradient></defs><title>img-brand1</title><g id="img"><g id="Group_163" data-name="Group 163"><rect id="Rectangle_89-3" data-name="Rectangle 89-3" class="cls-1" x="30.61" y="26.59" width="176.92" height="226.01" rx="4.01" transform="translate(-30.73 -25.79) rotate(-0.22)"/><g id="id" class="cls-2"><text class="cls-3" transform="translate(43.81 145.74)">id</text></g></g><g id="Group_162" data-name="Group 162"><g id="Rectangle_89-4" data-name="Rectangle 89-4"><rect class="cls-4" x="177.54" y="81.75" width="176.92" height="226.01" rx="4.01" transform="translate(-30.95 -25.22) rotate(-0.22)"/><rect class="cls-5" x="180.04" y="84.26" width="171.91" height="221" rx="1.5" transform="translate(-30.95 -25.22) rotate(-0.22)"/></g></g></g><g id="Group_24" data-name="Group 24"><g id="Group_23" data-name="Group 23"><rect id="Rectangle_7" data-name="Rectangle 7" class="cls-6" x="260.21" y="191.14" width="9.06" height="9.06" transform="translate(-91 218.25) rotate(-45)"/><path id="Path_49" data-name="Path 49" class="cls-7" d="M258.33,195.67l6.41-6.41-15.11-15.11,15.11-29.63-8.86-17.37-52.1,8.21-8.23,52.09,16.11,8.22,30.91-15.77Z" transform="translate(-30.19 -26.26)"/><path id="Path_50" data-name="Path 50" class="cls-7" d="M264.74,189.26l6.4,6.41L286.9,179.9l30.91,15.77,16.11-8.22-8.22-52.09-52.1-8.21-8.86,17.37,15.11,29.63Z" transform="translate(-30.19 -26.26)"/><path id="Path_51" data-name="Path 51" class="cls-7" d="M264.74,202.07l-6.41-6.4-15.76,15.76-30.91-15.76-16.11,8.21L203.78,256l52.1,8.22,8.86-17.38-15.11-29.63Z" transform="translate(-30.19 -26.26)"/><path id="Path_52" data-name="Path 52" class="cls-7" d="M286.9,211.43l-15.76-15.76-6.4,6.4,15.11,15.11-15.11,29.63,8.86,17.38L325.7,256l8.22-52.09-16.11-8.21Z" transform="translate(-30.19 -26.26)"/><path id="Path_53" data-name="Path 53" class="cls-7" d="M264.74,189.26l15.11-15.11-15.11-29.63-15.11,29.63Z" transform="translate(-30.19 -26.26)"/><path id="Path_54" data-name="Path 54" class="cls-7" d="M258.33,195.67,242.57,179.9l-30.91,15.77,30.91,15.76Z" transform="translate(-30.19 -26.26)"/><path id="Path_55" data-name="Path 55" class="cls-7" d="M271.14,195.67l15.76,15.76,30.91-15.76L286.9,179.9Z" transform="translate(-30.19 -26.26)"/><path id="Path_56" data-name="Path 56" class="cls-7" d="M264.74,202.07l-15.11,15.11,15.11,29.63,15.11-29.63Z" transform="translate(-30.19 -26.26)"/><g id="Group_16" data-name="Group 16"><rect id="Rectangle_8" data-name="Rectangle 8" class="cls-8" x="190.52" y="126.05" width="86.79" height="86.79"/><g id="Group_15" data-name="Group 15"><path id="Path_57" data-name="Path 57" class="cls-9" d="M260.53,221.74a1.32,1.32,0,0,1-1.47.27c-3.86-1.08-7.29-3.42-16.69-5.27a23.49,23.49,0,0,0-2.5-.43c-.49-.11-1-.39-.93-.93l.17-3.53c-7.45-2.56-13-9-13-18,0-11.58,9.14-19.08,19.68-19.08s19.63,7.5,19.63,19.08c0,8.65-4.95,14.68-11.91,17.62-.21.11-.43.32,0,.49.93.32,3,1,6.26,1.79a61.36,61.36,0,0,0,7,1.25c.6.11.81.71.16,1.25Zm-14.74-37.89a10,10,0,1,0,9.68,10A9.91,9.91,0,0,0,245.79,183.85Z" transform="translate(-30.19 -26.26)"/><path id="Path_58" data-name="Path 58" class="cls-9" d="M302.72,212.68H292.55a2.67,2.67,0,0,1-1.79-1.37l-6.53-10-6.69,10a2.45,2.45,0,0,1-1.73,1.32H265.53c-.92,0-.6-1-.27-1.37l13.43-17.1-13.05-17.78c-.27-.44-.49-1.48.38-1.48h10.11a2.63,2.63,0,0,1,1.79,1.38l6.26,9.71,6.14-9.73a2.52,2.52,0,0,1,1.74-1.36h10.17c.92,0,.81.86.38,1.46l-12.72,17.17,13.21,17.63C303.42,211.64,303.58,212.68,302.72,212.68Z" transform="translate(-30.19 -26.26)"/></g></g></g></g></svg>