<svg id="Layer_1" data-name="Layer 1" xmlns="http://www.w3.org/2000/svg" xmlns:xlink="http://www.w3.org/1999/xlink" viewBox="0 0 324.68 281.83"><defs><style>.cls-1{fill:url(#linear-gradient);}.cls-2{fill:#fff;}.cls-3{fill:url(#linear-gradient-2);}.cls-4,.cls-5{fill:none;}.cls-4{stroke:#fff;stroke-miterlimit:4.01;stroke-width:5.01px;}.cls-6{fill:#fc2a57;}.cls-7{fill:#fc2a51;}</style><linearGradient id="linear-gradient" x1="-262.01" y1="-27.87" x2="-262.04" y2="-26.25" gradientTransform="translate(46444.88 6303.23) scale(176.92 226.01)" gradientUnits="userSpaceOnUse"><stop offset="0" stop-color="#d07299"/><stop offset="1" stop-color="#b21d5a"/></linearGradient><linearGradient id="linear-gradient-2" x1="-262.02" y1="-27.94" x2="-262.02" y2="-26.81" gradientTransform="translate(46591.79 6358.4) scale(176.92 226.01)" gradientUnits="userSpaceOnUse"><stop offset="0" stop-color="#fff"/><stop offset="1" stop-color="#eee"/></linearGradient></defs><title>img-brand</title><rect id="Rectangle_89-3" data-name="Rectangle 89-3" class="cls-1" x="0.42" y="0.34" width="176.92" height="226.01" rx="4.01" transform="translate(-0.43 0.32) rotate(-0.22)"/><path class="cls-2" d="M111,101.8V70h15.07v75.59H112.23v-6.24c-.88.94-1.49,1.71-2.21,2.36-5.06,4.64-11,6-17.68,4.8C82,144.56,75,137,73.53,126.51c-1.13-8.3.34-16,5.55-22.74,4.9-6.3,11.5-8.73,19.37-7.88a18.52,18.52,0,0,1,8.19,2.46A49.85,49.85,0,0,1,111,101.8Zm1.21,19.54c-.11-4.81-1.58-9-6.26-11.1s-9.55-1.89-13.77,1.52c-2.67,2.17-3.67,5.25-3.86,8.59-.39,6.59,2.93,12.51,10.47,13.24,5.31.52,9.78-1.57,12-5.87A13.63,13.63,0,0,0,112.21,121.34Z" transform="translate(0 -0.02)"/><path class="cls-2" d="M49.35,97H64.27V145.6H49.35Z" transform="translate(0 -0.02)"/><path class="cls-2" d="M56.87,73a8.77,8.77,0,1,1-8.81,8.78A8.63,8.63,0,0,1,56.87,73Z" transform="translate(0 -0.02)"/><g id="Group_162" data-name="Group 162"><g id="Rectangle_89-4" data-name="Rectangle 89-4"><rect class="cls-3" x="147.34" y="55.51" width="176.92" height="226.01" rx="4.01" transform="translate(-0.64 0.89) rotate(-0.22)"/><rect class="cls-4" x="149.84" y="58.02" width="171.91" height="221" rx="1.5" transform="translate(-0.64 0.89) rotate(-0.22)"/></g></g><g id="Group_24" data-name="Group 24"><g id="Group_23" data-name="Group 23"><rect id="Rectangle_7" data-name="Rectangle 7" class="cls-5" x="230.03" y="164.88" width="9.06" height="9.06" transform="translate(-51.09 215.46) rotate(-45)"/><path id="Path_49" data-name="Path 49" class="cls-6" d="M228.14,169.41l6.41-6.41-15.11-15.11,15.11-29.63-8.86-17.37-52.1,8.21-8.23,52.09,16.11,8.22,30.91-15.77Z" transform="translate(0 -0.02)"/><path id="Path_50" data-name="Path 50" class="cls-6" d="M234.55,163l6.4,6.41,15.76-15.77,30.91,15.77,16.11-8.22-8.22-52.09-52.1-8.21-8.86,17.37,15.11,29.63Z" transform="translate(0 -0.02)"/><path id="Path_51" data-name="Path 51" class="cls-6" d="M234.55,175.81l-6.41-6.4-15.76,15.76-30.91-15.76-16.11,8.21,8.23,52.12,52.1,8.22,8.86-17.38L219.44,191Z" transform="translate(0 -0.02)"/><path id="Path_52" data-name="Path 52" class="cls-6" d="M256.71,185.17,241,169.41l-6.4,6.4,15.11,15.11-15.11,29.63,8.86,17.38,52.1-8.19,8.22-52.09-16.11-8.21Z" transform="translate(0 -0.02)"/><path id="Path_53" data-name="Path 53" class="cls-6" d="M234.55,163l15.11-15.11-15.11-29.63-15.11,29.63Z" transform="translate(0 -0.02)"/><path id="Path_54" data-name="Path 54" class="cls-6" d="M228.14,169.41l-15.76-15.77-30.91,15.77,30.91,15.76Z" transform="translate(0 -0.02)"/><path id="Path_55" data-name="Path 55" class="cls-6" d="M241,169.41l15.76,15.76,30.91-15.76-30.91-15.77Z" transform="translate(0 -0.02)"/><path id="Path_56" data-name="Path 56" class="cls-6" d="M234.55,175.81l-15.11,15.11,15.11,29.63,15.11-29.63Z" transform="translate(0 -0.02)"/><g id="Group_16" data-name="Group 16"><rect id="Rectangle_8" data-name="Rectangle 8" class="cls-2" x="190.52" y="126.03" width="86.79" height="86.79"/><g id="Group_15" data-name="Group 15"><path id="Path_57" data-name="Path 57" class="cls-7" d="M230.34,195.48a1.32,1.32,0,0,1-1.47.27c-3.86-1.08-7.29-3.42-16.69-5.27a23.31,23.31,0,0,0-2.5-.43c-.49-.11-1-.39-.93-.93l.17-3.53c-7.45-2.56-13-9-13-18,0-11.58,9.14-19.08,19.68-19.08s19.63,7.5,19.63,19.08c0,8.65-4.95,14.68-11.91,17.62-.21.11-.43.32,0,.49.93.32,3,1,6.26,1.79a61.43,61.43,0,0,0,7,1.25c.6.11.81.71.16,1.25ZM215.6,157.59a10,10,0,1,0,9.67,10.31c0-.1,0-.21,0-.31A9.91,9.91,0,0,0,215.6,157.59Z" transform="translate(0 -0.02)"/><path id="Path_58" data-name="Path 58" class="cls-7" d="M272.53,186.42H262.36a2.68,2.68,0,0,1-1.79-1.37l-6.53-10-6.69,10a2.46,2.46,0,0,1-1.73,1.32H235.34c-.92,0-.6-1-.27-1.37l13.43-17.1-13.05-17.78c-.27-.44-.49-1.48.38-1.48h10.11a2.64,2.64,0,0,1,1.79,1.38l6.26,9.71,6.14-9.73a2.5,2.5,0,0,1,1.74-1.36H272c.92,0,.81.86.38,1.46L259.7,167.27l13.21,17.63C273.23,185.38,273.39,186.42,272.53,186.42Z" transform="translate(0 -0.02)"/></g></g></g></g></svg>