<?xml version="1.0" encoding="utf-8"?>
<!-- Generator: Adobe Illustrator 25.3.1, SVG Export Plug-In . SVG Version: 6.00 Build 0)  -->
<svg version="1.1" id="Layer_1" xmlns="http://www.w3.org/2000/svg" xmlns:xlink="http://www.w3.org/1999/xlink" x="0px" y="0px"
	 viewBox="0 0 324.7 281.8" style="enable-background:new 0 0 324.7 281.8;" xml:space="preserve">
<style type="text/css">
	.st0{fill:url(#Rectangle_89-3_1_);}
	.st1{fill:#FFFFFF;}
	.st2{fill:url(#SVGID_1_);}
	.st3{fill:none;stroke:#FFFFFF;stroke-width:5.01;stroke-miterlimit:4.01;}
	.st4{fill:#3B3838;}
	.st5{fill:#FC2952;}
</style>
<linearGradient id="Rectangle_89-3_1_" gradientUnits="userSpaceOnUse" x1="28.347" y1="-28.9811" x2="28.317" y2="-27.361" gradientTransform="matrix(176.9187 -0.6793 0.8678 226.0083 -4899.9492 6573.5308)">
	<stop  offset="0" style="stop-color:#D07299"/>
	<stop  offset="1" style="stop-color:#B21D5A"/>
</linearGradient>
<path id="Rectangle_89-3" class="st0" d="M4,0.6L172.9,0c2.2,0,4,1.8,4,4l0.8,218c0,2.2-1.8,4-4,4L4.9,226.7c-2.2,0-4-1.8-4-4L0,4.7
	C0,2.5,1.8,0.7,4,0.6z"/>
<path class="st1" d="M111,101.8V70h15.1v75.6h-13.8v-6.2c-0.9,0.9-1.5,1.7-2.2,2.4c-5.1,4.6-11,6-17.7,4.8
	c-10.3-1.9-17.3-9.5-18.8-20c-1.1-8.3,0.3-16,5.6-22.7c4.9-6.3,11.5-8.7,19.4-7.9c2.9,0.2,5.7,1,8.2,2.5
	C108.2,99.4,109.6,100.5,111,101.8z M112.2,121.3c-0.1-4.8-1.6-9-6.3-11.1s-9.6-1.9-13.8,1.5c-2.7,2.2-3.7,5.2-3.9,8.6
	c-0.4,6.6,2.9,12.5,10.5,13.2c5.3,0.5,9.8-1.6,12-5.9C111.8,125.7,112.3,123.5,112.2,121.3z"/>
<path class="st1" d="M49.3,97h14.9v48.6H49.3V97z"/>
<path class="st1" d="M56.9,73c4.8,0,8.8,4,8.7,8.8c0,4.8-4,8.8-8.8,8.7c-4.8,0-8.7-3.9-8.7-8.8C48,77,51.8,73.1,56.5,73
	C56.6,73,56.8,73,56.9,73z"/>
<g id="Group_162">
	<g id="Rectangle_89-4">
		
			<linearGradient id="SVGID_1_" gradientUnits="userSpaceOnUse" x1="28.338" y1="-29.051" x2="28.338" y2="-27.9212" gradientTransform="matrix(176.9187 -0.6793 0.8678 226.0083 -4753.0371 6628.7065)">
			<stop  offset="0" style="stop-color:#FFFFFF"/>
			<stop  offset="1" style="stop-color:#EEEEEE"/>
		</linearGradient>
		<path class="st2" d="M150.9,55.8l168.9-0.6c2.2,0,4,1.8,4,4l0.8,218c0,2.2-1.8,4-4,4l-168.9,0.6c-2.2,0-4-1.8-4-4l-0.8-218
			C146.9,57.6,148.7,55.8,150.9,55.8z"/>
		<path class="st3" d="M150.9,58.3l168.9-0.6c0.8,0,1.5,0.7,1.5,1.5l0.8,218c0,0.8-0.7,1.5-1.5,1.5l-168.9,0.6
			c-0.8,0-1.5-0.7-1.5-1.5l-0.8-218C149.4,59,150.1,58.3,150.9,58.3z"/>
	</g>
</g>
<g>
	<g>
		<path class="st4" d="M232.5,223.5c-30,0-54.4-24.4-54.4-54.4s24.4-54.4,54.4-54.4s54.4,24.4,54.4,54.4c0,9.3-2.4,18.4-6.9,26.5
			c-1,1.7-3.2,2.4-4.9,1.4c-1.7-1-2.4-3.2-1.4-4.9c3.9-7,6-14.9,6-23c0-26-21.2-47.2-47.2-47.2s-47.2,21.2-47.2,47.2
			s21.2,47.2,47.2,47.2c6.6,0,13.1-1.4,19.1-4c1.8-0.8,3.9,0,4.7,1.8c0.8,1.8,0,3.9-1.8,4.7C247.6,222,240.2,223.5,232.5,223.5"/>
		<path class="st5" d="M271,206c0,2.7-2.2,4.9-4.9,4.9c-2.7,0-4.9-2.2-4.9-4.9s2.2-4.9,4.9-4.9S271,203.3,271,206"/>
		<path class="st5" d="M232.9,185.9l-4-3.8c-0.1-0.1-0.2-0.3-0.2-0.4c0-0.2,0.1-0.3,0.2-0.4c2.5-2.9,3.7-6.2,3.7-9.8
			c0-5-1.9-9.2-5.6-12.3c-3.1-2.6-6.6-3.9-10.5-3.9c-4.3,0-8,1.5-11.2,4.5c-3.2,3.1-4.9,7-4.9,11.6c0,4.7,1.7,8.6,5.1,11.6
			c3.1,2.7,6.8,4.1,10.8,4.1c2.8,0,5.4-0.7,7.7-2c0.2-0.1,0.3-0.2,0.4-0.2c0.2,0,0.3,0.1,0.4,0.2l1.8,1.8c0.1,0.1,0.3,0.2,0.4,0.2
			h5.1c0.3,0,0.6-0.3,0.6-0.6C233.1,186.2,233,186.1,232.9,185.9 M225.2,177.4c-0.1,0.1-0.3,0.2-0.4,0.2c-0.2,0-0.3-0.1-0.4-0.2
			l-3.5-3.4c-0.1-0.1-0.3-0.2-0.4-0.2h-5.3c-0.3,0-0.6,0.3-0.6,0.6c0,0.2,0.1,0.3,0.2,0.4l5.6,5.5c0.1,0.1,0.2,0.3,0.2,0.4
			c0,0.2-0.2,0.4-0.4,0.5c-1.1,0.4-2.4,0.6-3.7,0.6c-2.7,0-5.2-1-7.3-3c-2-1.9-3.1-4.5-3.1-7.6c0-3.2,1-5.8,3-7.9
			c2-2.1,4.5-3.1,7.6-3.1c3,0,5.6,1.1,7.6,3.1c2,2.1,3.1,4.7,3.1,7.7C227.2,173.6,226.6,175.6,225.2,177.4"/>
		<path class="st5" d="M264.4,186.3l-12.1-14.6l12-14.9c0.2-0.3,0.3-0.8-0.2-0.8h-5.9c-0.3,0-0.7,0.2-1,0.6l-8.2,10.8l-8.1-10.8
			c-0.3-0.5-0.7-0.6-1-0.6H234c-0.5,0-0.4,0.5-0.2,0.7l12,14.9l-12.1,14.6c-0.2,0.2-0.3,0.8,0.2,0.8h5.9c0.3,0,0.7-0.2,1-0.6
			l8.3-10.6l8.2,10.6c0.3,0.5,0.7,0.6,1,0.6h5.9C264.7,187,264.6,186.5,264.4,186.3"/>
	</g>
</g>
</svg>
